<?xml version="1.0" standalone="no"?>
<!DOCTYPE svg PUBLIC "-//W3C//DTD SVG 1.1//EN" "http://www.w3.org/Graphics/SVG/1.1/DTD/svg11.dtd" >
<svg xmlns="http://www.w3.org/2000/svg">
<metadata>Generated by IcoMoon</metadata>
<defs>
<font id="WPST-icons" horiz-adv-x="1024">
<font-face units-per-em="1024" ascent="960" descent="-64" />
<missing-glyph horiz-adv-x="1024" />
<glyph unicode="&#x20;" d="" horiz-adv-x="512" />
<glyph unicode="&#xe600;" d="M919.813 10.8h-590.625c-23.3 0-42.188 18.887-42.188 42.188 0 60.523 25.548 133.773 68.342 195.945 35.765 51.959 79.703 91.072 127.159 113.915-20.917 19.023-38.931 42.21-53.181 68.662-22.852 42.418-34.933 91.447-34.933 141.792 0 69.967 23.031 136.074 64.851 186.143 43.65 52.26 102.341 81.042 165.262 81.042s121.612-28.782 165.264-81.044c41.818-50.070 64.851-116.176 64.851-186.143 0-50.343-12.080-99.374-34.931-141.792-14.251-26.452-32.265-49.639-53.183-68.662 47.455-22.843 91.394-61.956 127.159-113.915 42.791-62.17 68.34-135.42 68.34-195.943 0-23.3-18.887-42.188-42.188-42.188zM376.713 95.175h495.573c-8.108 34.576-25.066 72.407-48.13 105.917-36.434 52.933-81.892 87.559-128.003 97.493-19.429 4.187-33.3 21.367-33.3 41.242v30.14c0 15.17 8.144 29.171 21.331 36.669 52.276 29.735 86.057 95.155 86.057 166.663 0 100.804-65.377 182.813-145.738 182.813s-145.738-82.009-145.738-182.813c0-71.508 33.78-136.927 86.057-166.663 13.185-7.501 21.329-21.5 21.329-36.669v-30.14c0-19.876-13.873-37.055-33.3-41.242-46.109-9.935-91.568-44.56-128.004-97.493-23.068-33.509-40.022-71.341-48.132-105.917zM235.244 151.425h-83.531c8.11 34.576 25.065 72.409 48.128 105.917 36.436 52.933 81.894 87.559 128.003 97.493 19.429 4.187 33.3 21.367 33.3 41.242v30.14c0 15.17-8.144 29.171-21.329 36.669-52.277 29.737-86.057 95.155-86.057 166.663 0 100.804 65.377 182.813 145.738 182.813 5.497 0 10.921-0.398 16.262-1.145 23.167 25.782 49.424 46.735 77.908 62.406-29.173 15.145-61.084 23.113-94.169 23.113-62.921 0-121.613-28.782-165.264-81.044-41.818-50.070-64.849-116.178-64.849-186.143 0-50.343 12.080-99.374 34.933-141.792 14.251-26.452 32.265-49.637 53.181-68.662-47.455-22.843-91.394-61.956-127.159-113.915-42.794-62.17-68.342-135.42-68.342-195.943 0-23.3 18.887-42.188 42.188-42.188h116.355c1.298 27.269 6.326 55.733 14.703 84.375z" />
<glyph unicode="&#xe601;" d="M402.357 905.113c-231.844-51.98-394.379-270.622-376.228-503.289 16.503-204.615 160.889-377.877 357.251-429.031 60.228-15.675 183.165-15.675 241.743 0 83.332 22.275 148.51 61.055 215.34 127.060 98.181 98.181 139.436 198.841 139.436 341.574 0 253.293-195.54 457.909-451.308 471.935-47.853 2.475-90.757 0-126.235-8.25zM624.297 819.306c113.033-35.477 213.691-130.359 256.595-244.218l8.25-20.627h-289.597l29.701 28.877c60.228 61.055 27.226 146.86-68.481 174.087-81.683 23.929-174.087-5.775-202.964-66.006-17.327-36.302-16.503-52.804 3.301-84.981 37.13-61.055 117.983-84.981 288.772-84.981 226.068 0 280.521-40.429 244.218-181.514-18.976-73.431-51.154-128.713-108.085-185.638-79.206-79.206-174.087-119.636-280.521-119.636-213.691 0-400.153 179.040-400.153 384.478v52.804h317.649l-33.002-15.677c-89.931-41.253-127.060-123.761-99.007-219.466 37.953-132.011 198.839-192.239 326.722-122.935 75.081 41.253 110.558 108.085 104.783 198.017-2.475 42.905-7.426 57.755-28.053 83.332-30.527 37.126-71.78 61.879-141.085 84.981-42.079 13.2-73.431 16.503-178.213 16.503-141.085 0-191.415 10.725-220.292 47.029-24.75 31.354-20.627 61.055 17.327 117.983 51.154 75.906 146.86 145.213 227.717 164.188 57.755 13.202 170.788 9.901 224.417-6.601z" />
<glyph unicode="&#xe602;" d="M894.041 160.636v382.041q-15.919-17.908-34.325-32.831-133.316-102.474-211.913-168.137-25.37-21.39-41.287-33.329t-43.029-24.126-50.988-12.188h-0.995q-23.878 0-50.988 12.188t-43.029 24.126-41.289 33.329q-78.597 65.663-211.913 168.137-18.406 14.923-34.325 32.831v-382.041q0-6.467 4.726-11.193t11.193-4.726h732.245q6.467 0 11.193 4.726t4.726 11.193zM894.041 683.455v12.188t-0.249 6.467-1.492 6.218-2.737 4.478-4.477 3.731-6.965 1.244h-732.245q-6.467 0-11.193-4.726t-4.726-11.193q0-83.572 73.125-141.276 96.007-75.612 199.478-157.691 2.985-2.489 17.411-14.675t22.883-18.654 22.137-15.669 25.121-13.68 21.39-4.477h0.994q9.95 0 21.39 4.477t25.121 13.68 22.137 15.669 22.883 18.654 17.411 14.675q103.469 82.079 199.478 157.691 26.862 21.39 49.994 57.456t23.131 65.415zM957.715 701.861v-541.225q0-32.831-23.38-56.212t-56.212-23.38h-732.245q-32.831 0-56.212 23.38t-23.38 56.212v541.225q0 32.831 23.38 56.212t56.212 23.38h732.245q32.831 0 56.212-23.38t23.38-56.212z" />
<glyph unicode="&#xe604;" d="M784.607 536.777q0-13.408-9.798-23.207l-231.040-231.040q-9.798-9.798-23.207-9.798t-23.207 9.798l-231.040 231.040q-9.798 9.798-9.798 23.207t9.798 23.207 23.207 9.798h462.080q13.408 0 23.207-9.798t9.798-23.207z" horiz-adv-x="1020" />
<glyph unicode="&#xe605;" d="M234.752 137.344c0-51.014 41.402-92.416 92.416-92.416 51.060 0 92.416 41.402 92.416 92.416s-41.356 92.416-92.416 92.416c-51.014 0-92.416-41.402-92.416-92.416zM696.832 137.344c0-51.014 41.402-92.416 92.416-92.416 51.060 0 92.416 41.402 92.416 92.416s-41.356 92.416-92.416 92.416c-51.014 0-92.416-41.402-92.416-92.416zM398.652 355.815l511.476 146.109c9.75 2.819 17.744 13.401 17.744 23.566v254.144h-651.533v78.554c0 10.166-8.272 18.483-18.483 18.483h-143.245c-10.166 0-18.483-8.317-18.483-18.483v-73.933h89.783l90.938-418.505 8.78-43.575v-69.312c0-10.166 8.317-18.483 18.438-18.483h605.37c10.119 0 18.438 8.317 18.438 18.483v69.312h-519.748c-53.094 0-54.202 20.794-9.472 33.639z" />
<glyph unicode="&#xe606;" d="M905.252 759.692c-8.578 9.836-20.929 15.495-33.954 15.495h-620.643l-8.758 52.278c-3.593 21.647-22.321 37.546-44.283 37.546h-101.053c-24.837 0-44.913-20.076-44.913-44.913s20.076-44.913 44.913-44.913h63.012l83.537-501.401c0.359-2.021 1.393-3.683 2.021-5.569 0.719-2.38 1.302-4.626 2.425-6.782 1.437-2.964 3.368-5.479 5.389-8.039 1.393-1.752 2.649-3.503 4.266-5.031 2.605-2.425 5.614-4.132 8.668-5.839 1.706-0.943 3.188-2.201 5.031-2.919 5.209-2.111 10.689-3.368 16.483-3.368 0.045 0 494.080 0 494.080 0 24.837 0 44.913 20.076 44.913 44.913s-20.076 44.913-44.913 44.913h-455.995l-7.456 44.913h508.362c22.366 0 41.319 16.438 44.463 38.535l44.913 314.386c1.841 12.935-2.021 26.004-10.509 35.795zM819.515 685.361l-12.8-89.824h-159.978v89.824h172.778zM601.824 685.361v-89.824h-134.737v89.824h134.737zM601.824 550.624v-89.824h-134.737v89.824h134.737zM422.176 685.361v-89.824h-134.737c-2.38 0-4.536-0.674-6.647-1.347l-15.18 91.172h156.564zM288.067 550.624h134.108v-89.824h-119.153l-14.956 89.824zM646.737 460.8v89.824h153.511l-12.8-89.824h-140.711zM422.176 123.958c0-37.206-30.162-67.368-67.368-67.368s-67.368 30.162-67.368 67.368c0 37.206 30.162 67.368 67.368 67.368s67.368-30.162 67.368-67.368zM826.386 123.958c0-37.206-30.162-67.368-67.368-67.368s-67.368 30.162-67.368 67.368c0 37.206 30.162 67.368 67.368 67.368s67.368-30.162 67.368-67.368z" />
<glyph unicode="&#xe607;" d="M402.256 129.732c0-45.457-36.851-82.308-82.308-82.308s-82.308 36.85-82.308 82.308c0 45.458 36.851 82.308 82.308 82.308s82.308-36.85 82.308-82.308zM950.976 129.732c0-45.457-36.85-82.308-82.308-82.308s-82.308 36.85-82.308 82.308c0 45.458 36.85 82.308 82.308 82.308s82.308-36.85 82.308-82.308zM950.976 486.4v329.232h-658.464c0 30.305-24.567 54.872-54.872 54.872h-164.616v-54.872h109.744l41.218-353.284c-25.116-20.112-41.218-51.014-41.218-85.692 0-60.613 49.135-109.744 109.744-109.744h658.464v54.872h-658.464c-30.305 0-54.872 24.567-54.872 54.872 0 0.187 0.011 0.373 0.013 0.562l713.323 109.182z" />
<glyph unicode="&#xe610;" d="M368.874 130.329h-155.344v517.815h155.344v-517.815zM938.471 130.329h-155.344v276.617c0 72.079-25.684 107.965-76.585 107.965-40.338 0-65.918-20.092-78.759-60.326 0-65.348 0-324.256 0-324.256h-155.344c0 0 2.071 466.034 0 517.815h122.62l9.476-103.563h3.21c31.845 51.781 82.746 86.89 152.548 86.89 53.076 0 96.003-14.758 128.781-51.833 32.986-37.126 49.401-86.941 49.401-156.898v-292.411zM371.462 777.598c0-42.896-35.935-77.673-80.261-77.673s-80.261 34.775-80.261 77.673c0 42.896 35.935 77.673 80.261 77.673s80.261-34.775 80.261-77.673z" />
<glyph unicode="&#xe611;" d="M628.627 8.925h-158.096v421.875h-105.469v145.39l105.469 0.048-0.172 85.654c0 118.612 32.163 190.783 171.879 190.783h116.326v-145.418h-72.699c-54.409 0-57.024-20.316-57.024-58.241l-0.217-72.777h130.757l-15.412-145.39-115.236-0.048-0.107-421.875z" />
<glyph unicode="&#xe612;" d="M1024 750c-35.321-15.664-73.279-26.252-113.119-31.012 40.661 24.375 71.893 62.972 86.599 108.966-38.059-22.573-80.209-38.963-125.072-47.794-35.925 38.278-87.114 62.194-143.762 62.194-108.771 0-196.957-88.179-196.957-196.948 0-15.437 1.742-30.469 5.1-44.886-163.689 8.215-308.814 86.625-405.954 205.787-16.954-29.089-26.668-62.921-26.668-99.017 0-68.332 34.77-128.618 87.619-163.937-32.286 1.024-62.655 9.883-89.207 24.636-0.019-0.821-0.019-1.646-0.019-2.477 0-95.426 67.892-175.027 157.989-193.125-16.524-4.5-33.926-6.911-51.889-6.911-12.692 0-25.029 1.238-37.058 3.536 25.065-78.244 97.801-135.193 183.986-136.778-67.406-52.828-152.331-84.313-244.609-84.313-15.898 0-31.575 0.932-46.983 2.756 87.161-55.884 190.689-88.494 301.914-88.494 362.271 0 560.377 300.116 560.377 560.385 0 8.539-0.193 17.033-0.572 25.481 38.49 27.769 71.879 62.457 98.284 101.951z" />
<glyph unicode="&#xe613;" d="M588.124 820.8c0 0-188.396 0-251.194 0-112.613 0-218.597-85.318-218.597-184.146 0-100.993 76.764-182.499 191.333-182.499 7.967 0 15.709 0.159 23.289 0.705-7.434-14.237-12.752-30.27-12.752-46.914 0-28.067 15.098-50.822 34.189-69.398-14.424 0-28.352-0.42-43.549-0.42-139.483 0.002-246.844-88.836-246.844-180.956 0-90.729 117.696-147.482 257.188-147.482 159.022 0 246.849 90.229 246.849 180.964 0 72.75-21.465 116.318-87.831 163.251-22.703 16.072-66.122 55.159-66.122 78.135 0 26.925 7.684 40.189 48.214 71.856 41.543 32.46 70.942 78.096 70.942 131.171 0 63.193-28.144 124.779-80.974 145.099h79.644l56.212 40.635zM500.388 206.308c1.993-8.411 3.079-17.068 3.079-25.901 0-73.313-47.243-130.603-182.788-130.603-96.414 0-166.046 61.035-166.046 134.344 0 71.852 86.368 131.666 182.779 130.624 22.5-0.238 43.47-3.859 62.503-10.022 52.337-36.399 89.884-56.964 100.474-98.441zM346.017 479.76c-64.723 1.935-126.221 72.399-137.392 157.369-11.171 84.999 32.222 150.039 96.926 148.116 64.697-1.944 126.223-70.138 137.398-155.117 11.162-84.994-32.241-152.304-96.932-150.368zM844 640.8v180h-60v-180h-180v-60h180v-180h60v180h180v60z" />
<glyph unicode="&#xe614;" d="M628.761 481.534l-0.002-192.961c0-48.958-0.635-77.17 4.556-91.049 5.15-13.805 18.060-28.135 32.126-36.421 18.691-11.197 39.997-16.79 64.029-16.79 42.727 0 67.959 5.643 110.2 33.404v-126.846c-36.008-16.935-67.455-26.857-96.672-33.718-29.251-6.791-60.859-10.222-94.81-10.222-38.585 0-61.35 4.85-90.975 14.548-29.629 9.779-54.926 23.736-75.822 41.644-20.97 18.064-35.449 37.251-43.545 57.54-8.096 20.299-12.126 49.779-12.126 88.366v295.889h-113.236v119.482c33.13 10.747 70.173 26.192 93.752 46.267 23.692 20.146 42.654 44.252 56.942 72.464 14.331 28.135 24.182 64.033 29.558 107.542h136.025l-0.002-210.934h210.911v-158.203h-210.911z" />
<glyph unicode="&#xe615;" d="M441.139 295.526c-26.88-140.954-59.699-276.122-156.979-346.726-30.003 213.094 44.083 373.094 78.49 542.976-58.675 98.816 7.066 297.574 130.867 248.576 152.32-60.262-131.891-367.258 58.88-405.606 199.219-40.038 280.525 345.6 157.030 470.989-178.483 181.146-519.578 4.198-477.594-255.027 10.189-63.386 75.674-82.637 26.163-170.086-114.227 25.293-148.326 115.405-143.923 235.52 7.066 196.557 176.64 334.182 346.726 353.229 215.142 24.115 417.024-78.95 444.826-281.293 31.386-228.352-97.024-475.699-327.117-457.882-62.31 4.762-88.474 35.635-137.37 65.331z" />
<glyph unicode="&#xe616;" d="M609.38 545.962l59.877-28.928 90.386 28.928v52.458c0 108.075-88.102 196.003-196.442 196.003-108.295 0-196.398-87.927-196.398-196.003v-275.238c0-25.373-20.719-46.049-46.136-46.049s-46.136 20.676-46.136 46.049v115.231h-150.306v-115.231c0-108.075 88.102-196.003 196.442-196.003s196.442 87.927 196.442 196.003v275.238c0 25.373 20.719 46.049 46.136 46.049 25.46 0 46.18-20.676 46.18-46.049v-52.458zM851.914 438.412v-115.231c0-25.373-20.719-46.049-46.136-46.049-25.46 0-46.18 20.676-46.18 46.049v117.558l-90.385-28.928-59.877 28.928v-117.558c0-108.075 88.102-196.003 196.442-196.003 108.295 0 196.398 87.927 196.398 196.003v115.231h-150.261z" />
<glyph unicode="&#xe617;" d="M293.529 293.947c-52.512 0-95.177-42.832-95.177-95.027 0-52.482 42.669-94.835 95.177-94.835 52.701 0 95.319 42.353 95.319 94.835-0.002 52.195-42.615 95.027-95.319 95.027zM198.458 575.376v-137.055c89.236 0 173.158-34.897 236.357-98.125 63.118-63.072 97.965-147.373 97.965-236.946h137.659c-0.002 260.354-211.793 472.124-471.981 472.124zM198.621 818.349v-137.122c318.289 0 577.355-259.316 577.355-577.975h137.472c0 394.189-320.713 715.096-714.826 715.096z" />
<glyph unicode="&#xe618;" d="M877.956 151.661h-695.567c-42.662 0-77.286 34.623-77.286 77.286v463.709c0 42.662 34.623 77.286 77.286 77.286h695.567c42.659 0 77.286-34.623 77.286-77.286v-463.709c0-42.662-34.623-77.286-77.286-77.286zM839.317 228.945l-221.498 193.833-87.644-77.903-87.644 77.903-221.498-193.833h618.278zM182.399 267.589l217.363 193.211-217.363 193.211v-386.425zM221.040 692.655l309.139-270.497 309.139 270.497h-618.278zM877.956 654.010l-217.363-193.211 217.363-193.211v386.425z" />
<glyph unicode="&#xe620;" d="M842.828 910.8h-597.657c-83.145 0-151.172-68.028-151.172-151.172v-597.657c0-83.145 68.028-151.172 151.172-151.172h597.657c83.145 0 151.172 68.028 151.172 151.172v597.657c0 83.145-68.028 151.172-151.172 151.172zM431.5 179.55h-112.5v393.75h112.5v-393.75zM375.25 629.55c-31.066 0-56.25 25.184-56.25 56.25s25.184 56.25 56.25 56.25 56.25-25.184 56.25-56.25-25.184-56.25-56.25-56.25zM825.25 179.55h-112.5v225.001c0 31.066-25.184 56.25-56.25 56.25s-56.25-25.184-56.25-56.25v-225.001h-112.5v393.75h112.5v-69.849c23.201 31.873 58.669 69.849 98.438 69.849 69.899 0 126.563-62.96 126.563-140.625v-253.125z" />
<glyph unicode="&#xe621;" d="M844.009 908.525h-599.994c-82.505 0-150.015-67.513-150.015-150.019v-599.964c0-82.563 67.51-150.017 150.015-150.017l599.994 0.002c82.508 0 149.991 67.452 149.991 150.019v599.961c0 82.507-67.484 150.019-149.991 150.019zM859.169 458.525h-146.419v-393.75h-168.75v393.75h-81.322v128.816h81.322v83.66c0 113.679 49.036 181.273 182.698 181.273h154.023v-139.369h-125.798c-37.338 0.062-41.969-19.469-41.969-55.821l-0.203-69.744h168.75l-22.331-128.816z" />
<glyph unicode="&#xe622;" d="M844.009 910.8h-599.991c-82.507 0-150.017-67.508-150.017-150.021v-599.961c0-82.563 67.51-150.019 150.017-150.019h599.991c82.508 0 149.991 67.456 149.991 150.021v599.959c0 82.511-67.484 150.021-149.991 150.021zM830.569 610.359c0.289-6.453 0.43-12.945 0.43-19.466 0-198.821-148.725-428.087-420.697-428.087-83.499 0-161.221 24.915-226.657 67.604 11.566-1.396 23.335-2.103 35.271-2.103 69.277 0 133.029 24.055 183.634 64.409-64.702 1.213-119.306 44.715-138.124 104.486 9.030-1.758 18.292-2.702 27.819-2.702 13.486 0 26.548 1.842 38.953 5.281-67.641 13.827-118.609 74.633-118.609 147.53 0 0.635 0 1.264 0.014 1.891 19.933-11.268 42.736-18.036 66.973-18.817-39.676 26.98-65.779 73.030-65.779 125.233 0 27.571 7.29 53.418 20.019 75.637 72.926-91.028 181.878-150.925 304.764-157.203-2.523 11.015-3.831 22.496-3.831 34.29 0 83.090 66.204 150.451 147.859 150.451 42.531 0 80.963-18.269 107.932-47.511 33.68 6.746 65.324 19.266 93.895 36.512-11.041-35.136-34.483-64.619-65.009-83.242 29.905 3.637 58.405 11.724 84.919 23.69-19.817-30.169-44.886-56.668-73.778-77.881z" />
<glyph unicode="&#xe623;" d="M124.916 154.148c-0.209 2.171-0.388 4.347-0.501 6.543 0.111-2.194 0.292-4.371 0.501-6.543zM326.486 415.232c78.888-2.347 131.808 79.477 118.2 182.79-13.627 103.296-88.649 186.194-167.538 188.556-78.901 2.34-131.813-76.72-118.19-180.049 13.617-103.287 88.611-188.943 167.53-191.298zM1002.176 680.288v73.142c0 80.491-65.831 146.346-146.318 146.346h-585.292c-79.115 0-144.048-63.644-146.237-142.262 50.038 44.057 119.453 80.864 191.086 80.864 76.567 0 306.292 0 306.292 0l-68.545-57.974h-97.114c64.414-24.696 98.732-99.562 98.732-176.381 0-64.516-35.846-119.993-86.499-159.445-49.423-38.498-58.792-54.622-58.792-87.348 0-27.932 52.94-75.449 80.62-94.988 80.921-57.047 107.1-110.011 107.1-198.445 0-14.086-1.751-28.149-5.201-41.977h263.85c80.485 0 146.316 65.804 146.316 146.345v457.245h-164.616v-164.614h-54.872v164.616h-164.614v54.872h164.614v164.616h54.872v-164.616h164.616zM283.598 243.082c18.531 0 35.514 0.506 53.102 0.506-23.275 22.578-41.691 50.242-41.691 84.349 0 20.242 6.486 39.727 15.548 57.032-9.244-0.66-18.682-0.852-28.401-0.852-63.751 0-117.894 20.642-157.932 54.747v-57.652l0.006-172.958c45.818 21.755 100.217 34.828 159.369 34.828zM127.157 139.064c-0.953 4.68-1.686 9.436-2.179 14.261 0.492-4.826 1.225-9.582 2.179-14.261zM514.715 82.829c-12.91 50.419-58.69 75.419-122.509 119.663-23.21 7.486-48.78 11.895-76.216 12.182-76.836 0.826-148.418-29.958-188.808-75.767 13.65-66.623 72.906-117.082 143.382-117.082h245.59c1.557 9.541 2.311 19.404 2.311 29.52 0 10.746-1.315 21.255-3.752 31.485z" />
<glyph unicode="&#xe624;" d="M844.041 910.8h-600.023c-82.51 0-150.017-67.513-150.017-150.017v-599.964c0-82.563 67.508-150.019 150.017-150.019h600.023c82.503 0 149.959 67.456 149.959 150.019v599.966c-0.009 82.503-67.463 150.015-149.959 150.015zM737.11 185.977c-26.501-12.47-50.562-21.259-72.070-26.313-21.53-5.001-44.789-7.522-69.787-7.522-28.4 0-45.155 3.566-66.962 10.711-21.803 7.196-40.43 17.466-55.81 30.649-15.433 13.297-26.092 27.42-32.050 42.358-5.963 14.945-8.926 36.643-8.926 65.043v217.794h-84.371v87.949c24.384 7.911 52.678 19.278 70.035 34.057 17.438 14.829 31.393 32.571 41.91 53.335 10.551 20.711 17.798 47.132 21.755 79.159h88.33v-143.65h143.588v-110.853h-143.594v-159.247c0-36.036-0.464-56.8 3.353-67.015 3.79-10.16 13.295-20.707 23.645-26.807 13.761-8.241 29.447-12.357 47.132-12.357 31.452 0 62.735 10.218 93.823 30.653v-97.945z" />
<glyph unicode="&#xe625;" d="M873.291 922.88h-616.139c-85.061 0-154.009-68.969-154.009-154.044v-616.073c0-85.075 68.949-154.043 154.009-154.043h616.139c85.060 0 154.011 68.967 154.011 154.043v616.073c0 85.075-68.951 154.044-154.011 154.044zM610.025 305.464c-41.984 3.261-59.603 24.057-92.511 44.049-18.104-94.923-40.217-185.931-105.717-233.466-20.22 143.469 29.687 251.224 52.859 365.615-39.517 66.52 4.757 200.385 88.102 167.389 102.548-40.566-88.806-247.293 39.648-273.111 134.129-26.956 188.883 232.717 105.721 317.16-120.175 121.933-349.807 2.78-321.569-171.796 6.871-42.681 50.966-55.628 17.621-114.529-76.911 17.049-99.862 77.707-96.907 158.58 4.755 132.373 118.935 225.051 233.464 237.869 144.837 16.213 280.773-53.165 299.545-189.413 21.127-153.776-65.387-320.323-220.257-308.348z" horiz-adv-x="1050" />
<glyph unicode="&#xe626;" d="M845.969 904.879h-589.793c-82.051 0-149.183-67.133-149.183-149.183v-589.793c0-82.051 67.133-149.183 149.183-149.183h589.793c82.051 0 149.183 67.133 149.183 149.183v589.793c0 82.051-67.133 149.183-149.183 149.183zM551.074 627.329c-30.608 0-55.509-24.902-55.509-55.509v-222.040c0-91.827-74.704-166.529-166.529-166.529s-166.529 74.702-166.529 166.529v111.020h111.020v-111.020c0-30.607 24.902-55.509 55.509-55.509s55.509 24.902 55.509 55.509v222.040c0 91.825 74.704 166.529 166.529 166.529s166.529-74.704 166.529-154.386v-53.775l-71.122-20.817-39.898 20.817v53.775c0 18.466-24.902 43.366-55.509 43.366zM939.643 349.78c0-91.827-74.704-166.529-166.529-166.529s-166.529 74.702-166.529 178.673v107.551l39.898-20.817 71.122 20.817v-107.551c0-42.751 24.902-67.652 55.509-67.652s55.509 24.902 55.509 55.509v111.020h111.020v-111.020z" />
<glyph unicode="&#xe627;" d="M847.006 922.88h-616.095c-84.723 0-154.044-69.322-154.044-154.046v-616.072c0-84.775 69.322-154.042 154.046-154.042h616.093c84.723 0 154.021 69.265 154.021 154.042v616.072c0 84.723-69.298 154.046-154.021 154.046zM328.615 172.678c-43.292 0-78.467 34.919-78.467 78.182 0 43.035 35.172 78.347 78.467 78.347 43.462 0 78.572-35.313 78.572-78.347-0.002-43.262-35.111-78.182-78.572-78.182zM525.833 172.004c0 73.834-28.707 143.333-80.738 195.341-52.087 52.12-121.274 80.888-194.854 80.888v112.981c214.481 0 389.091-174.582 389.091-389.206l-113.5-0.002zM726.333 172.004c0 262.684-213.584 476.466-475.957 476.466v113.037c324.902 0 589.284-264.545 589.284-589.505l-113.326 0.004z" />
<glyph unicode="&#xe628;" d="M841.579 916.8h-607.958c-83.611 0-152.021-68.386-152.021-151.992v-607.991c0-83.609 68.409-152.017 152.021-152.017h607.96c83.664 0 152.019 68.409 152.019 152.017v607.991c0 83.607-68.355 151.992-152.021 151.992zM309.6 688.8h456c8.139 0 16.035-1.747 23.284-5.043l-251.284-293.165-251.284 293.167c7.249 3.292 15.146 5.041 23.284 5.041zM252.6 289.8v342c0 1.193 0.050 2.38 0.124 3.563l167.138-194.993-165.298-165.3c-1.286 4.754-1.965 9.696-1.965 14.731zM765.6 232.8h-456c-5.036 0-9.977 0.678-14.731 1.965l162.199 162.199 80.532-93.957 80.534 93.956 162.197-162.199c-4.756-1.284-9.696-1.963-14.731-1.963zM822.6 289.8c0-5.036-0.678-9.975-1.965-14.731l-165.298 165.298 167.138 194.995c0.075-1.183 0.124-2.369 0.124-3.563v-342z" />
<glyph unicode="&#xe630;" d="M544 921.6c-254.496 0-460.8-206.304-460.8-460.8s206.304-460.8 460.8-460.8 460.8 206.304 460.8 460.8-206.304 460.8-460.8 460.8zM431.2 269.808h-93.312v300.24h93.312v-300.24zM383.968 606.912c-29.472 0-48.528 20.928-48.528 46.704 0 26.4 19.632 46.656 49.728 46.656s48.528-20.256 49.104-46.656c0.048-25.824-19.008-46.704-50.304-46.704zM771.952 269.808h-93.264v166.416c0 38.688-13.536 65.040-47.28 65.040-25.776 0-41.088-17.808-47.904-34.992-2.448-6.096-3.072-14.736-3.072-23.28v-173.136h-93.36v204.48c0 37.44-1.2 68.784-2.448 95.76h81.024l4.32-41.712h1.824c12.288 19.632 42.384 48.48 92.736 48.48 61.392 0 107.424-41.088 107.424-129.504v-177.552z" />
<glyph unicode="&#xe631;" d="M544 921.6c-254.496 0-460.8-206.304-460.8-460.8s206.304-460.8 460.8-460.8 460.8 206.304 460.8 460.8-206.304 460.8-460.8 460.8zM653.104 603.168h-69.264c-8.16 0-17.28-10.8-17.28-25.152v-50.016h86.592v-71.328h-86.592v-214.128h-81.792v214.128h-74.112v71.28h74.112v41.952c0 60.192 41.76 109.104 99.072 109.104h69.264v-75.84z" />
<glyph unicode="&#xe632;" d="M544 921.6c-254.496 0-460.8-206.304-460.8-460.8s206.304-460.8 460.8-460.8 460.8 206.304 460.8 460.8-206.304 460.8-460.8 460.8zM731.392 544.080c0.192-3.888 0.288-7.824 0.288-11.76 0-119.904-91.296-258.192-258.24-258.192-51.216 0-98.976 14.976-139.104 40.8 7.104-0.864 14.352-1.248 21.648-1.248 42.528 0 81.648 14.496 112.752 38.88-39.696 0.72-73.248 26.976-84.816 62.976 5.52-1.056 11.232-1.632 17.040-1.632 8.304 0 16.32 1.104 23.904 3.168-41.472 8.352-72.816 45.024-72.816 88.992 0 0.384 0 0.768 0.048 1.104 12.24-6.768 26.256-10.848 41.088-11.328-24.288 16.272-40.32 44.016-40.32 75.552 0 16.656 4.464 32.256 12.288 45.648 44.736-54.96 111.648-91.104 187.056-94.848-1.536 6.624-2.352 13.536-2.352 20.688 0 50.112 40.656 90.768 90.768 90.768 26.112 0 49.68-10.992 66.24-28.656 20.688 4.032 40.128 11.568 57.648 21.984-6.816-21.168-21.168-38.976-39.936-50.208 18.384 2.208 35.856 7.056 52.128 14.304-12.144-18.192-27.6-34.176-45.312-46.992z" />
<glyph unicode="&#xe633;" d="M500.656 591.12c-11.568 40.8-30.288 52.848-59.424 52.848-3.12 0-6.288-0.432-9.312-1.248-12.672-3.6-22.656-14.16-28.224-29.76-5.712-15.84-6.096-32.4-1.104-51.216 8.832-33.6 32.736-58.032 56.88-58.032 3.12 0 6.288 0.432 9.312 1.248 26.256 7.44 42.768 47.664 31.872 86.16zM544 921.6c-254.496 0-460.8-206.304-460.8-460.8s206.304-460.8 460.8-460.8c254.544 0 460.8 206.304 460.8 460.8s-206.256 460.8-460.8 460.8zM517.456 262.944c-28.992-14.064-60.144-15.552-72.192-15.552-2.304 0-3.6 0.048-3.792 0.048 0 0-0.912 0-2.352 0-18.816 0-112.464 4.32-112.464 89.616 0 83.808 101.952 90.336 133.2 90.336h0.864c-18 24.096-14.256 48.384-14.256 48.384-1.584-0.096-3.936-0.192-6.768-0.192-11.808 0-34.512 1.872-54 14.496-23.856 15.312-35.952 41.472-35.952 77.712 0 102.288 111.648 106.416 112.8 106.464h111.504v-2.448c0-12.48-22.368-14.88-37.68-16.992-5.184-0.72-15.552-1.776-18.528-3.264 28.272-15.072 32.832-38.832 32.832-74.16 0-40.176-15.744-61.44-32.448-76.416-10.32-9.216-18.48-16.56-18.48-26.256 0-9.504 11.136-19.296 24.096-30.672 21.168-18.624 50.208-44.112 50.208-86.928 0-44.256-19.056-75.936-56.592-94.176zM761.296 461.232h-72.768v-72.768h-46.080v72.768h-72.768v46.080h72.768v72.72h46.080v-72.768h72.768v-46.032zM458.704 405.552c-2.496 0-4.992-0.096-7.488-0.288-21.312-1.536-40.992-9.552-55.248-22.512-14.112-12.768-21.264-28.848-20.256-45.168 2.112-34.080 38.784-54.096 83.232-50.88 43.824 3.168 73.008 28.368 70.848 62.496-2.064 32.112-29.952 56.352-71.088 56.352z" />
<glyph unicode="&#xe634;" d="M544 921.6c-254.496 0-460.8-206.304-460.8-460.8s206.304-460.8 460.8-460.8c254.496 0 460.752 206.304 460.752 460.8s-206.208 460.8-460.752 460.8zM667.648 261.984c-18.864-8.976-35.904-15.264-51.072-18.912-15.264-3.6-31.872-5.424-49.584-5.424-20.16 0-37.968 2.592-53.472 7.728-15.456 5.136-28.704 12.528-39.648 22.032s-18.528 19.68-22.752 30.432-6.336 26.304-6.336 46.704v156.528h-48.72v63.12c17.28 5.712 32.16 13.872 44.496 24.528 12.336 10.608 22.272 23.376 29.712 38.304 7.488 14.88 12.672 33.888 15.456 56.88h62.688v-112.848h104.592v-70.032h-104.592v-114.432c0-25.872 1.344-42.48 4.080-49.824s7.728-13.2 15.072-17.568c9.792-5.904 20.976-8.928 33.504-8.928 22.32 0 44.544 7.344 66.576 22.080v-70.368z" />
<glyph unicode="&#xe635;" d="M538.947 927.744c-257.889 0-466.944-209.055-466.944-466.944s209.055-466.944 466.944-466.944 466.944 209.055 466.944 466.944-209.055 466.944-466.944 466.944zM570.856 350.096c-29.914 2.335-42.463 17.169-65.907 31.421-12.938-67.707-28.649-132.592-75.392-166.446-14.397 102.291 21.207 179.092 37.696 260.613-28.163 47.376 3.405 142.807 62.794 119.314 73.106-28.941-63.329-176.272 28.26-194.706 95.626-19.213 134.636 165.911 75.344 226.079-85.655 86.919-249.328 1.994-229.191-122.476 4.912-30.448 36.285-39.642 12.551-81.667-54.817 12.16-71.209 55.401-69.069 113.040 3.405 94.411 84.78 160.464 166.397 169.657 103.263 11.527 200.154-37.891 213.578-135.024 15.031-109.683-46.646-228.365-157.059-219.804z" />
<glyph unicode="&#xe636;" d="M540.295 927.744c-257.889 0-466.944-209.055-466.944-466.944s209.055-466.944 466.944-466.944 466.944 209.055 466.944 466.944-209.055 466.944-466.944 466.944zM540.295 568.538c-14.252 0-25.828-11.577-25.828-25.779v-154.092c0-60.46-49.321-109.732-109.975-109.732-60.605 0-109.975 49.273-109.975 109.732v64.496h84.099v-64.496c0-14.203 11.577-25.731 25.828-25.731s25.828 11.527 25.828 25.731v154.092c0.048 60.508 49.418 109.683 110.023 109.683s109.975-49.223 109.975-109.732v-29.379l-50.586-16.198-33.513 16.198v29.427c-0.048 14.202-11.625 25.779-25.876 25.779zM786.073 388.667c0-60.46-49.369-109.732-109.975-109.732-60.654 0-109.975 49.273-109.975 109.732v65.809l33.513-16.197 50.586 16.197v-65.859c0-14.202 11.577-25.731 25.828-25.731s25.779 11.527 25.779 25.731v64.496h84.147v-64.448z" />
<glyph unicode="&#xe637;" d="M538.947 922.88c-255.199 0-462.080-206.881-462.080-462.080s206.881-462.080 462.080-462.080 462.080 206.881 462.080 462.080-206.881 462.080-462.080 462.080zM365.667 229.76c-31.9 0-57.76 25.86-57.76 57.76s25.86 57.76 57.76 57.76 57.76-25.86 57.76-57.76-25.86-57.76-57.76-57.76zM524.507 229.76c0 119.433-97.167 216.6-216.6 216.6v86.64c167.208 0 303.24-136.032 303.24-303.24h-86.64zM697.787 229.76c0 104.139-40.555 202.048-114.194 275.687-73.638 73.638-171.545 114.193-275.686 114.193v86.64c127.283 0 246.948-49.567 336.952-139.569 90.001-90.003 139.568-209.667 139.568-336.949h-86.64z" />
<glyph unicode="&#xe638;" d="M537.6 922.88c-255.199 0-462.080-206.881-462.080-462.080s206.881-462.080 462.080-462.080 462.080 206.881 462.080 462.080-206.881 462.080-462.080 462.080zM306.56 691.84h462.080c8.247 0 16.249-1.771 23.595-5.11l-254.635-297.074-254.635 297.076c7.346 3.335 15.348 5.108 23.595 5.108zM248.8 287.52v346.56c0 1.209 0.050 2.411 0.126 3.61l169.367-197.595-167.502-167.502c-1.303 4.816-1.991 9.825-1.991 14.927zM768.64 229.76h-462.080c-5.102 0-10.11 0.688-14.927 1.993l164.361 164.361 81.606-95.212 81.608 95.208 164.36-164.363c-4.819-1.3-9.825-1.987-14.927-1.987zM826.4 287.52c0-5.102-0.688-10.108-1.991-14.927l-167.504 167.502 169.369 197.595c0.076-1.199 0.126-2.401 0.126-3.61v-346.56z" />
<glyph unicode="&#xe640;" d="M439.714 296.577h-79.623v258.724h79.623v-258.724zM399.901 588.496c-28.715 0-43.096 13.287-43.096 39.811 0 11.098 4.081 20.503 12.441 28.216 8.261 7.713 18.462 11.595 30.655 11.595 28.715 0 43.096-13.338 43.096-39.861s-14.333-39.762-43.096-39.762zM735.015 296.577h-81.265v144.316c0 37.572-13.338 56.382-39.861 56.382-21.001 0-34.785-10.501-41.503-31.5-2.141-3.334-3.284-10.002-3.284-19.906v-149.293h-81.265v175.817c0 39.811-0.597 67.431-1.642 82.907h69.669l4.977-34.785c18.264 27.669 44.787 41.454 81.265 41.454 27.719 0 50.063-9.655 67.182-29.013 17.219-19.359 25.777-47.276 25.777-83.804v-152.577zM537.6 12.921c-246.981 0-447.879 200.899-447.879 447.879s200.899 447.879 447.879 447.879 447.879-200.899 447.879-447.879-200.899-447.879-447.879-447.879zM537.6 809.151c-192.041 0-348.351-156.309-348.351-348.351s156.309-348.351 348.351-348.351 348.351 156.309 348.351 348.351-156.309 348.351-348.351 348.351z" />
<glyph unicode="&#xe641;" d="M853.803 778.098c-87.088 86.64-193.483 130.581-316.203 130.581-123.862 0-230.559-43.992-317.148-130.632-86.739-86.64-130.731-193.434-130.731-317.247 0-122.668 43.942-229.066 130.581-316.203 86.64-87.386 193.384-131.677 317.298-131.677 122.769 0 229.164 44.291 316.301 131.527 87.336 87.238 131.577 193.683 131.577 316.352 0 123.814-44.291 230.607-131.677 317.298zM783.536 214.816c-56.582-56.681-121.225-88.978-196.171-98.782v245.238h99.528v99.528h-99.528v69.669c0 16.472 13.386 29.858 29.909 29.858h69.621v99.528h-69.52c-36.925 0-67.728-13.585-92.413-40.906-24.683-27.221-37.123-60.463-37.123-99.927v-58.224h-99.528v-99.528h99.528v-245.339c-75.742 9.704-140.634 42.051-196.918 98.733-68.426 68.875-101.668 149.392-101.668 246.134 0 97.837 33.194 178.554 101.619 246.831 68.176 68.325 148.896 101.519 246.732 101.519 96.793 0 177.261-33.242 246.085-101.668 68.824-68.277 102.266-148.994 102.266-246.682 0-96.593-33.492-177.112-102.415-245.984z" />
<glyph unicode="&#xe642;" d="M700.777 546.246c17.816 10.997 29.709 25.927 35.481 44.987-17.368-9.257-34.686-15.527-52.004-19.059-15.527 16.721-35.234 25.231-58.821 25.231-23.091 0-42.548-8.112-58.473-23.837-15.775-15.825-23.787-35.134-23.787-57.626 0-6.818 0.845-12.939 2.588-18.114-68.078 2.388-124.361 30.555-168.752 84.898-7.515-13.287-11.297-26.822-11.297-40.806 0-28.763 12.143-51.556 36.328-68.325-13.785 1.144-25.927 4.678-36.328 10.4 0-20.552 6.022-37.721 18.164-52.849 12.093-14.929 27.719-24.484 46.729-28.515-6.918-1.792-14.183-2.637-21.647-2.637-6.966 0-11.794 0.597-14.731 1.841 5.176-16.772 14.731-30.307 28.565-40.707 13.785-10.451 29.709-15.924 47.624-16.422-29.411-23.14-63.152-34.536-101.271-34.536-9.355 0-15.924 0.099-19.906 0.845 37.522-24.335 79.325-36.478 125.456-36.478 47.326 0 89.178 11.994 125.504 35.98 36.328 23.837 63.249 53.247 80.468 87.934 17.318 34.586 25.927 70.616 25.927 108.187v10.4c16.721 12.591 30.307 26.774 40.707 42.499-14.829-6.619-30.405-11.048-46.529-13.287zM537.6 12.921c-123.914 0-230.657 44.291-317.298 131.677-86.64 87.137-130.581 193.534-130.581 316.203 0 123.814 43.992 230.607 130.731 317.247 86.589 86.64 193.284 130.632 317.148 130.632 122.719 0 229.115-43.942 316.203-130.581 87.386-86.689 131.677-193.483 131.677-317.298 0-122.668-44.24-229.115-131.577-316.352-87.137-87.238-193.534-131.527-316.301-131.527zM537.6 809.151c-97.837 0-178.554-33.194-246.732-101.519-68.426-68.277-101.619-148.994-101.619-246.831 0-96.741 33.242-177.261 101.668-246.085 68.277-68.824 148.944-102.266 246.682-102.266 96.692 0 177.16 33.492 245.936 102.364 68.923 68.875 102.415 149.392 102.415 245.984 0 97.687-33.441 178.405-102.266 246.682-68.824 68.426-149.293 101.668-246.085 101.668z" />
<glyph unicode="&#xe643;" d="M557.568 615.36c0 0-112.8 0-150.4 0-67.424 0-130.88-51.072-130.88-110.24 0-60.48 45.952-109.28 114.56-109.28 4.768 0 9.408 0.096 13.952 0.416-4.448-8.512-7.648-18.112-7.648-28.096 0-16.8 9.056-30.432 20.48-41.536-8.64 0-16.992-0.256-26.080-0.256-83.52 0-147.808-53.184-147.808-108.352 0-54.336 70.464-88.288 153.984-88.288 95.2 0 147.808 54.016 147.808 108.352 0 43.552-12.864 69.632-52.576 97.76-13.6 9.632-39.584 33.024-39.584 46.784 0 16.128 4.608 24.064 28.864 43.008 24.864 19.424 42.464 46.752 42.464 78.528 0 37.824-16.864 74.72-48.48 86.88h47.68l33.664 24.32zM505.056 247.424c1.184-5.024 1.856-10.208 1.856-15.52 0-43.904-28.288-78.208-109.44-78.208-57.728 0-99.424 36.544-99.424 80.448 0 43.008 51.712 78.848 109.44 78.208 13.472-0.128 26.016-2.304 37.408-6.016 31.328-21.792 53.824-34.112 60.16-58.944zM412.608 411.168c-38.752 1.152-75.584 43.36-82.272 94.208s19.296 89.824 58.048 88.672c38.752-1.152 75.584-41.984 82.272-92.864s-19.296-91.2-58.048-90.048zM710.784 507.584v107.776h-35.936v-107.776h-107.776v-35.936h107.776v-107.776h35.936v107.776h107.776v35.936zM537.6 12.928c-246.976 0-447.872 200.896-447.872 447.872s200.896 447.872 447.872 447.872 447.872-200.896 447.872-447.872-200.896-447.872-447.872-447.872zM537.6 809.152c-192.032 0-348.352-156.32-348.352-348.352s156.32-348.352 348.352-348.352 348.352 156.32 348.352 348.352-156.32 348.352-348.352 348.352z" />
<glyph unicode="&#xe644;" d="M655.891 282.146v61.409c-19.856-13.338-39.215-19.906-58.024-19.906-8.859 0-18.761 2.837-29.858 8.261-6.668 4.479-10.501 9.405-11.644 14.98-3.284 6.619-4.977 21.001-4.977 43.145v97.837h91.267v61.36h-91.267v97.886h-53.049c-4.428-23.24-8.859-39.811-13.287-49.765-5.474-12.143-14.333-23.24-26.524-33.143-12.192-10.002-24.882-17.169-38.168-21.598v-54.791h41.454v-134.363c0-15.476 2.189-28.664 6.668-39.762 3.284-8.859 9.903-17.666 19.906-26.524 7.664-7.763 18.761-14.382 33.143-19.906 17.666-4.479 33.143-6.619 46.48-6.619 15.476 0 29.858 1.642 43.096 4.977 15.527 3.334 30.456 8.859 44.787 16.522zM537.6 12.921c-246.981 0-447.879 200.899-447.879 447.879s200.899 447.879 447.879 447.879 447.879-200.899 447.879-447.879-200.899-447.879-447.879-447.879zM537.6 809.151c-192.041 0-348.351-156.309-348.351-348.351s156.309-348.351 348.351-348.351 348.351 156.309 348.351 348.351-156.309 348.351-348.351 348.351z" />
<glyph unicode="&#xe645;" d="M537.6 12.921c-246.981 0-447.879 200.899-447.879 447.879s200.899 447.879 447.879 447.879 447.879-200.899 447.879-447.879-200.899-447.879-447.879-447.879zM537.6 809.151c-192.041 0-348.351-156.309-348.351-348.351s156.309-348.351 348.351-348.351 348.351 156.309 348.351 348.351-156.309 348.351-348.351 348.351zM554.271 659.857c-122.818 0-184.725-88.083-184.725-161.436 0-44.54 16.82-84.002 52.9-98.733 5.921-2.439 11.247-0.099 12.988 6.42 1.144 4.578 3.981 16.024 5.225 20.802 1.742 6.42 1.045 8.709-3.682 14.382-10.4 12.241-17.118 28.166-17.118 50.709 0 65.291 48.868 123.764 127.297 123.764 69.472 0 107.541-42.449 107.541-99.032 0-74.547-32.944-137.448-81.912-137.448-27.022 0-47.276 22.343-40.806 49.814 7.763 32.745 22.842 68.078 22.842 91.717 0 21.2-11.396 38.765-34.836 38.765-27.669 0-49.864-28.565-49.864-66.883 0-24.384 8.261-40.906 8.261-40.906s-28.316-119.832-33.292-140.834c-9.854-41.802-1.443-93.059-0.746-98.235 0.398-3.085 4.329-3.832 6.121-1.493 2.588 3.334 35.481 44.041 46.678 84.599 3.185 11.445 18.214 71.013 18.214 71.013 8.957-17.118 35.183-32.148 63.1-32.148 83.106 0 139.489 75.692 139.489 177.16-0.049 76.538-64.993 147.999-163.676 147.999z" />
<glyph unicode="&#xe646;" d="M567.392 509.248l34.048-16.448 51.424 16.448v29.824c0 61.472-50.112 111.488-111.744 111.488s-111.712-50.016-111.712-111.488v-156.544c0-14.432-11.776-26.208-26.24-26.208s-26.24 11.744-26.24 26.208v65.536h-85.504v-65.536c0-61.472 50.112-111.488 111.744-111.488s111.744 50.016 111.744 111.488v156.544c0 14.432 11.776 26.208 26.24 26.208s26.272-11.744 26.272-26.208v-29.824zM705.344 448.064v-65.536c0-14.432-11.776-26.208-26.24-26.208s-26.272 11.744-26.272 26.208v66.88l-51.424-16.448-34.048 16.448v-66.88c0-61.472 50.112-111.488 111.744-111.488s111.712 50.016 111.712 111.488v65.536h-85.472zM537.6 12.928c-246.976 0-447.872 200.896-447.872 447.872s200.896 447.872 447.872 447.872 447.872-200.896 447.872-447.872-200.896-447.872-447.872-447.872zM537.6 809.152c-192.032 0-348.352-156.32-348.352-348.352s156.32-348.352 348.352-348.352 348.352 156.32 348.352 348.352-156.32 348.352-348.352 348.352z" />
<glyph unicode="&#xe647;" d="M393.952 370.624c-28.384 0-51.424-23.136-51.424-51.36 0-28.352 23.072-51.232 51.424-51.232 28.48 0 51.52 22.88 51.52 51.232 0 28.192-23.040 51.36-51.52 51.36zM342.56 522.72v-74.048c48.224 0 93.568-18.848 127.712-53.024 34.112-34.080 52.928-79.648 52.928-128.032h74.4c0 140.672-114.432 255.104-255.040 255.104zM342.656 654.016v-74.080c172 0 311.968-140.128 311.968-312.32h74.272c0 212.992-173.312 386.4-386.272 386.4zM537.6 12.928c-246.976 0-447.872 200.896-447.872 447.872s200.896 447.872 447.872 447.872 447.872-200.896 447.872-447.872-200.896-447.872-447.872-447.872zM537.6 809.152c-192.032 0-348.352-156.32-348.352-348.352s156.32-348.352 348.352-348.352 348.352 156.32 348.352 348.352-156.32 348.352-348.352 348.352z" />
<glyph unicode="&#xe648;" d="M735.392 283.904h-398.016c-24.416 0-44.224 19.808-44.224 44.224v265.344c0 24.416 19.808 44.224 44.224 44.224h398.016c24.416 0 44.224-19.808 44.224-44.224v-265.344c0-24.416-19.808-44.224-44.224-44.224zM713.28 328.128l-126.752 110.912-50.144-44.576-50.144 44.576-126.752-110.912h353.792zM337.376 350.24l124.384 110.56-124.384 110.56v-221.12zM359.488 593.472l176.896-154.784 176.896 154.784h-353.792zM735.392 571.36l-124.384-110.56 124.384-110.56v221.12zM537.6 12.928c-246.976 0-447.872 200.896-447.872 447.872s200.896 447.872 447.872 447.872 447.872-200.896 447.872-447.872-200.896-447.872-447.872-447.872zM537.6 809.152c-192.032 0-348.352-156.32-348.352-348.352s156.32-348.352 348.352-348.352 348.352 156.32 348.352 348.352-156.32 348.352-348.352 348.352z" />
<glyph unicode="&#xe650;" d="M624.48 590.336c-21.696 0-37.76-5.472-50.336-12.384-2.016 7.168-8.64 12.416-16.448 10.848h-95.488c-9.44 1.568-17.088-6.080-14.176-16v-352c-2.912-8.96 4.736-16.64 14.176-16h95.488c9.44-0.64 17.088 7.040 17.088 16.48l-0.032 212.736c-0.032 0.096-0.384 10.272 6.048 17.28 5.152 5.568 14.016 8.416 26.272 8.416 20.416 0 29.504-8.352 32.896-27.040v-211.392c-3.36-9.44 4.288-17.12 13.728-16.48h100.64c9.44-0.64 17.088 7.040 13.696 16.48v218.496c3.36 111.104-75.776 150.56-143.552 150.56zM737.216 236.8h-66.432v195.872c0 37.792-24.416 61.216-63.68 61.216-22.208 0-39.488-6.528-51.392-19.392-16.544-17.92-15.264-40.64-11.712-45.696v-192h-64.704v319.36h61.312v-10.752c0-6.496 3.68-12.48 9.536-15.328s12.8-2.144 17.984 1.792l4.48 3.456c12.96 10.208 26.368 20.8 51.904 20.8 26.432 0 112.736-8.416 112.736-116.384v-202.944zM352 749.888c-35.904 0-65.088-29.184-65.088-65.088s29.184-65.088 65.088-65.088 65.088 29.184 65.088 65.088-29.184 65.088-65.088 65.088zM352 653.888c-17.024 0-30.912 13.888-30.912 30.912s13.888 30.912 30.912 30.912 30.912-13.888 30.912-30.912-13.888-30.912-30.912-30.912zM397.696 590.368h-94.976c-9.44 0-17.088-7.648-14.72-17.568v-352c-2.368-8.96 5.28-16.64 14.72-16h94.976c9.44-0.64 17.088 7.040 17.088 16.48v352c0 9.44-7.648 17.088-17.088 17.088zM384 236.8h-64.192v319.36h64.192v-319.36zM512 973.888c-282.944 0-513.088-230.144-513.088-513.088s230.144-513.088 513.088-513.088 513.088 230.144 513.088 513.088-230.144 513.088-513.088 513.088zM512-18.112c-264.064 0-478.912 214.848-478.912 478.912s214.848 478.912 478.912 478.912 478.912-214.848 478.912-478.912-214.848-478.912-478.912-478.912z" />
<glyph unicode="&#xe651;" d="M512 973.888c-282.912 0-513.12-230.144-513.12-513.088s230.208-513.088 513.12-513.088 513.12 230.144 513.12 513.088-230.208 513.088-513.12 513.088zM512-18.112c-264.064 0-478.88 214.848-478.88 478.912s214.816 478.912 478.88 478.912 478.88-214.848 478.88-478.912-214.816-478.912-478.88-478.912zM624 748.8h-85.376c-108.736 1.088-122.624-66.208-122.624-139.040v-52.96h-48c-9.44 1.088-17.12-6.56-16-16v-96c-1.12-9.44 6.56-17.088 16-16h48v-240c-0.992-9.44 6.656-17.088 16.096-16h97.76c9.44-1.088 17.088 6.56 14.080 16l0.064 240h80c9.44-1.088 17.12 6.56 16 16v96c1.12 9.44-6.56 17.088-16 16h-80.096l0.096 48c3.104 20.448 3.104 17.12 22.080 16h57.248c4.448 0.992 9.184 0.448 12.512 3.68s5.248 7.648 4.128 12.32v96c1.152 9.44-6.528 17.088-15.968 16zM606.88 654.592l-40.128 1.536c-49.696 0-53.856-26.976-53.856-54.592l-0.128-60.672c0-4.544 1.792-8.896 4.992-12.128 3.2-3.2 7.552-4.992 12.096-4.992h78.144v-61.824h-78.080c-9.44 0-17.088-7.648-17.12-17.088l-0.032-240.032h-64.768v240c0 9.44-6.432 17.088-15.904 17.088h-48.096v61.824h48.096c4.544 0 8.896 1.792 12.096 4.992 3.2 3.232 3.776 7.584 3.776 12.128v68.96c0 71.744 14.496 105.92 90.624 105.92h68.256v-61.12z" />
<glyph unicode="&#xe652;" d="M512 973.888c-282.912 0-513.12-230.144-513.12-513.088s230.208-513.088 513.12-513.088 513.12 230.144 513.12 513.088-230.208 513.088-513.12 513.088zM512-18.112c-264.064 0-478.88 214.848-478.88 478.912s214.816 478.912 478.88 478.912 478.88-214.848 478.88-478.912-214.816-478.912-478.88-478.912zM793.408 619.328c3.52 6.528 6.464 13.408 8.736 20.576 2.144 6.784-0.064 14.144-5.632 18.592-5.536 4.416-13.28 4.928-19.36 1.344-16.416-9.76-34.080-16.96-52.672-21.536-22.336 20.192-51.68 31.584-81.984 31.584-67.36 0-122.144-54.784-122.144-122.080 0-1.696 0.032-3.36 0.096-5.056-71.52 8.928-137.536 45.28-183.52 101.696-3.52 4.352-8.96 6.624-14.592 6.24-5.6-0.448-10.624-3.584-13.44-8.48-10.816-18.56-16.544-39.776-16.544-61.408 0-20.48 5.088-40.192 14.432-57.664-2.368-0.384-4.704-1.248-6.848-2.496-5.216-3.104-8.448-9.344-8.448-15.392 0-36.32 16.16-69.664 42.208-92.32-0.384-0.352-0.736-0.736-1.12-1.12-4-4.544-5.312-10.816-3.456-16.576 11.232-35.008 37.248-62.272 69.888-75.68-33.312-16.48-72-22.912-108.992-18.528-7.808 0.704-15.392-3.712-18.112-11.264-2.656-7.488 0.16-15.84 6.88-20.16 50.944-32.64 109.792-49.888 170.208-49.888 197.76 0 315.968 160.64 315.968 315.936 0 1.76 0 3.488-0.032 5.248 19.104 14.912 35.68 32.736 49.312 53.12 4.224 6.304 3.776 14.688-1.12 20.512-4.832 5.728-12.8 7.712-19.712 4.8zM737.568 563.168c-4.704-3.392-7.392-8.928-7.104-14.752 0.192-4.224 0.288-8.512 0.288-12.736 0-138.496-105.376-281.76-281.728-281.76-31.648 0-62.848 5.312-92.384 15.616 35.36 6.752 68.512 21.824 97.44 44.48 5.696 4.48 7.968 12.032 5.664 18.912-2.304 6.848-8.672 11.52-15.904 11.648-28.512 0.576-54.368 14.752-70.208 37.184 8.096 0.544 16.032 1.888 23.744 3.968 7.648 2.080 12.832 9.152 12.576 17.088-0.256 7.904-5.952 14.624-13.728 16.192-32.096 6.432-57.28 30.176-66.592 60.96 8.512-2.144 17.248-3.392 25.984-3.68 7.52 0.032 14.496 4.64 16.832 11.872s-0.416 15.2-6.784 19.424c-24.48 16.384-39.104 43.712-39.104 73.184 0 7.136 0.864 14.176 2.528 21.056 55.392-56.8 130.56-91.104 210.176-95.104 5.632-0.032 10.56 1.984 13.984 6.112s4.736 9.6 3.52 14.848c-1.504 6.496-2.272 13.248-2.272 20.064 0 48.48 39.456 87.904 87.936 87.904 24.224 0 47.616-10.112 64.16-27.776 4.032-4.32 9.984-6.208 15.808-5.088 5.28 1.056 10.496 2.272 15.648 3.68-2.304-1.728-4.704-3.328-7.232-4.832-6.912-4.128-9.984-12.576-7.392-20.192s10.368-12.608 18.208-11.424c1.952 0.224 3.872 0.48 5.824 0.736-3.168-2.624-6.496-5.152-9.888-7.584z" />
<glyph unicode="&#xe653;" d="M512 973.888c-282.944 0-513.088-230.144-513.088-513.088s230.144-513.088 513.088-513.088 513.088 230.144 513.088 513.088-230.144 513.088-513.088 513.088zM512-18.112c-264.064 0-478.912 214.848-478.912 478.912s214.848 478.912 478.912 478.912 478.912-214.848 478.912-478.912-214.848-478.912-478.912-478.912zM577.088 666.816c0 9.44-7.648 17.088-17.088 17.088h-136.32c-0.832 0-1.504-0.352-2.304-0.48-1.824 0.064-3.52 0.48-5.376 0.48-71.2 0-129.088-49.376-129.088-110.080s57.92-110.080 129.088-110.080c9.824 0 19.296 1.12 28.512 2.912-2.4-9.312-3.712-20-2.112-31.936 1.504-11.168 5.952-21.856 11.776-32.256-11.872 2.080-24.096 3.488-36.832 3.488-88.064 0-159.712-52.96-159.712-118.080s71.648-118.080 159.712-118.080c88.096 0 159.744 52.96 159.744 118.080 0 33.472-19.136 63.584-49.504 85.088-1.216 3.072-3.040 5.92-5.984 7.904-27.136 18.368-42.336 37.888-45.216 57.984-3.2 22.368 9.984 38.72 10.656 39.552 1.44 1.696 2.432 3.616 3.104 5.6 33.152 19.936 54.976 52.704 54.976 89.856 0 29.472-13.824 56.128-36 75.904h50.88c9.44-0.064 17.088 7.616 17.088 17.056zM417.344 203.904c-69.216 0-125.536 37.664-125.536 83.904s56.32 83.904 125.536 83.904 125.568-37.664 125.568-83.904-56.352-83.904-125.568-83.904zM416 497.888c-52.32 0-94.912 34.048-94.912 75.904s42.592 75.904 94.912 75.904 94.912-34.048 94.912-75.904-42.592-75.904-94.912-75.904zM809.984 588.8h-74.912v76c0 9.44-7.648 17.088-17.088 17.088s-17.088-7.648-13.984-13.088v-80h-78.016c-9.44 1.088-17.088-6.56-17.088-16s7.648-17.088 17.088-16h78.016v-76c0-9.44 4.576-17.088 14.016-17.088s17.088 7.648 17.088 17.088v76h74.912c9.44-1.088 17.088 6.56 17.088 16s-7.68 17.088-17.12 16z" />
<glyph unicode="&#xe654;" d="M512 973.888c-282.944 0-513.088-230.144-513.088-513.088s230.144-513.088 513.088-513.088 513.088 230.144 513.088 513.088-230.144 513.088-513.088 513.088zM512-18.112c-264.064 0-478.912 214.848-478.912 478.912s214.848 478.912 478.912 478.912 478.912-214.848 478.912-478.912-214.848-478.912-478.912-478.912zM655.936 588.8h-111.936v112.032c1.056 9.44-6.592 17.088-16.032 17.088h-82.528c-8.64 0-15.904-6.4-16.96-15.008-3.040-24.416-8.512-44.448-16.224-59.616-7.552-14.944-17.792-27.936-30.4-38.688-10.272-8.736-27.936-17.344-51.040-24.8-7.072-2.272-11.84-8.864-10.816-16.288v-86.688c-1.024-9.44 6.624-17.088 16.064-16.032l47.936-32v-149.376c-1.088 9.632 1.184 3.104 5.632-7.392l1.888-4.544c0.16-0.416 16.384-40.736 35.904-57.568 14.4-12.352 31.84-21.952 51.84-28.544 18.72-6.112 34.592-9.664 60.512-9.664 21.824 0 42.464 2.208 61.44 6.624 21.792 5.088 41.504 11.968 62.016 21.664 6.016 2.816 9.824 8.832 8.768 15.456v76.96c1.024 6.272-2.4 12.064-7.936 15.072s-12.256 2.688-17.536-0.768c-22.56-14.816-34.656-17.472-57.472-17.472-10.624 0-19.84 2.176-28.192 6.752-3.36 6.112-8.224 24.896-10.080 32.288-1.664 6.368-3.072 11.584-4.032 14.176-1.76 4.672-1.76 21.376-1.728 40.704l0.032 77.632h110.88c9.44-1.056 17.088 6.592 16.064 16.032v96c1.024 9.44-6.624 17.088-16.064 15.968zM638.848 492.8h-110.88c-9.44 1.12-17.088-6.528-15.968-15.968l-0.064-93.568c-1.152-27.296-1.152-42.304 2.784-52.8 0.736-1.952 1.696-5.888 2.944-10.688 8.128-31.648 13.248-45.888 23.776-52.064 14.016-8.384 30.016-12.64 47.616-12.64 18.336 0 33.056 1.6 49.792 8.608v-37.12c-14.88-6.368-29.568-11.168-45.44-14.88-16.416-3.808-34.432-5.76-53.664-5.76-21.568 0-33.728 2.688-49.856 7.968-15.68 5.184-29.248 12.608-40.224 22.016-8.704 7.488-20.928 30.528-26.4 44.256l-2.112 5.152c-3.040 7.2-4.064 9.632-5.152 26.112v165.408c1.088 9.44-6.56 17.088-16 17.088h-46.848v57.408c22.016 8.032 39.072 17.184 50.848 27.264 16.128 13.696 29.152 30.24 38.752 49.216 7.776 15.328 13.632 34.048 17.44 55.936h50.688v-110.912c0-9.44 7.648-17.088 17.088-16.032h110.88v-64z" />
<glyph unicode="&#xe657;" d="M512 973.888c-282.944 0-513.088-230.144-513.088-513.088s230.144-513.088 513.088-513.088 513.088 230.144 513.088 513.088-230.144 513.088-513.088 513.088zM512-18.112c-264.064 0-478.912 214.848-478.912 478.912s214.848 478.912 478.912 478.912 478.912-214.848 478.912-478.912-214.848-478.912-478.912-478.912zM336.064 526.368c-9.44 0-17.088-7.648-17.088-17.088s7.648-17.088 17.088-17.088c72.096 0 132.48-22.304 174.528-64.512 42.080-42.176 64.32-102.656 64.32-174.88 0-9.44 7.648-17.088 17.088-17.088s17.088 7.648 17.088 17.088c0.032 81.472-25.664 150.272-74.24 199.040-48.672 48.736-117.376 74.528-198.784 74.528zM336.16 683.936c-9.44 0-17.088-7.648-17.088-17.088s7.648-17.088 17.088-17.088c228.48 0 400.736-170.656 400.736-396.928 0-9.44 7.648-17.088 17.088-17.088s17.088 7.648 17.088 17.088c0.032 245.76-186.944 431.104-434.912 431.104zM383.968 368.576c-35.872 0-65.056-29.216-65.056-65.12 0-35.872 29.184-65.056 65.056-65.056 35.904 0 65.12 29.184 65.12 65.088-0.032 35.904-29.248 65.088-65.12 65.088zM383.968 272.576c-17.024 0-30.88 13.856-30.88 30.88 0 17.056 13.856 30.944 30.88 30.944s30.912-13.92 30.944-30.944c0-17.024-13.888-30.88-30.944-30.88z" />
<glyph unicode="&#xe658;" d="M497.886 749.423c-9.788 8.995-25.971 8.995-35.757 0l-298.478-180.068c-2.532-1.536-4.084-4.268-4.084-7.223v-319.3c0-14.563 11.913-26.425 26.561-26.425h587.74c14.647 0 26.561 11.864 26.561 26.425v319.3c0 2.953-1.553 5.687-4.084 7.223l-298.461 180.069zM471.631 735.467c0.592 0.353 1.113 0.775 1.603 1.249 1.822 1.805 4.218 2.802 6.767 2.802s4.945-0.997 6.751-2.802c0.489-0.472 1.029-0.894 1.603-1.249l290.698-175.393-210.561-125.479c-3.999-2.395-5.315-7.56-2.935-11.576 1.586-2.649 4.388-4.117 7.255-4.117 1.468 0 2.953 0.369 4.304 1.182l206.629 123.016v-299.641l-285.771 190.109c-9.079 7.24-26.898 7.24-35.369 0.422l-286.344-190.447v299.558l206.612-123.016c1.349-0.809 2.852-1.182 4.32-1.182 2.871 0 5.671 1.468 7.255 4.117 2.379 4.002 1.064 9.18-2.935 11.576l-210.58 125.479 290.698 175.393zM768.386 233.281h-576.907l281.062 187.071c2.918 2.328 12.015 2.311 15.509-0.422l280.336-186.649zM269.068 537.025h421.864c4.657 0 8.438 3.78 8.438 8.438s-3.78 8.438-8.438 8.438h-421.864c-4.658 0-8.438-3.78-8.438-8.438s3.78-8.438 8.438-8.438z" horiz-adv-x="1216" />
<glyph unicode="&#xe661;" d="M537.6 922.88c-255.199 0-462.080-206.881-462.080-462.080s206.881-462.080 462.080-462.080v346.56h-115.52v115.52h115.52v86.64c0 79.751 64.647 144.4 144.4 144.4h144.4v-115.52h-144.4c-15.95 0-28.88-12.931-28.88-28.88v-86.64h158.84l-28.88-115.52h-129.96v-332.002c199.298 51.296 346.56 232.213 346.56 447.523 0 255.199-206.881 462.080-462.080 462.080z" />
<glyph unicode="&#xe662;" d="M537.6 922.88c-255.199 0-462.080-206.881-462.080-462.080s206.881-462.080 462.080-462.080 462.080 206.881 462.080 462.080-206.881 462.080-462.080 462.080zM767.266 578.594c0.227-5.083 0.343-10.194 0.343-15.332 0-156.592-119.193-337.164-337.16-337.164-66.92 0-129.209 19.618-181.651 53.244 9.27-1.099 18.704-1.661 28.268-1.661 55.52 0 106.616 18.945 147.172 50.73-51.856 0.951-95.618 35.216-110.699 82.294 7.236-1.382 14.66-2.13 22.296-2.13 10.808 0 21.279 1.453 31.219 4.161-54.208 10.89-95.057 58.781-95.057 116.196 0 0.5 0 0.997 0.010 1.491 15.974-8.875 34.248-14.207 53.672-14.823-31.797 21.251-52.718 57.522-52.718 98.636 0 21.718 5.844 42.075 16.046 59.574 58.446-71.695 145.763-118.87 244.247-123.814-2.020 8.674-3.069 17.717-3.069 27.007 0 65.442 53.059 118.496 118.502 118.496 34.084 0 64.882-14.39 86.497-37.42 26.992 5.312 52.353 15.174 75.25 28.756-8.848-27.673-27.638-50.895-52.103-65.561 23.97 2.864 46.809 9.234 68.059 18.658-15.878-23.761-35.968-44.632-59.126-61.34z" />
<glyph unicode="&#xe663;" d="M469.918 184.489c0-67.749-41.867-121.288-160.426-125.606-69.478 39.517-127.695 96.524-168.685 165.037 21.381 52.792 88.167 92.999 164.54 92.158 21.68-0.227 41.885-3.713 60.237-9.657 50.457-35.077 91.153-56.994 101.373-96.972 1.908-8.090 2.962-16.431 2.962-24.959zM537.6 922.88c-133.516 0-253.779-56.649-338.136-147.196 33.333 18.458 72.685 29.456 114.529 29.456 60.529 0 231.435 0 231.435 0l-51.717-54.276h-60.748c42.865-24.558 65.658-75.132 65.658-130.873 0-51.164-28.353-92.398-68.391-123.695-39.060-30.506-46.471-43.29-46.471-69.252 0-22.149 46.679-55.141 68.139-71.24 74.743-56.056 89.869-91.319 89.869-161.43 0-71.051-62.215-141.787-167.744-165.827 50.854-19.257 105.977-29.826 163.577-29.826 255.199 0 462.080 206.881 462.080 462.080s-206.881 462.080-462.080 462.080zM768.64 576.32v-115.52h-57.76v115.52h-115.52v57.76h115.52v115.52h57.76v-115.52h115.52v-57.76h-115.52zM405.626 616.507c10.76-81.925-25.131-134.644-87.483-132.788-62.387 1.879-121.663 59.106-132.433 141.008-10.765 81.937 31.062 144.629 93.435 142.772 62.354-1.872 115.719-69.079 126.48-150.992zM274.87 343.413c-67.399 0-124.661-23.256-165.015-57.637-22.113 53.988-34.335 113.074-34.335 175.023 0 51.232 8.353 100.51 23.746 146.562 6.655-89.746 69.81-159.013 174.155-159.013 7.684 0 15.13 0.399 22.449 0.922-7.174-13.745-12.294-29.051-12.294-45.109 0-27.047 14.881-42.48 33.274-60.372-13.9 0-27.319-0.377-41.981-0.377z" />
<glyph unicode="&#xe666;" d="M537.6 922.88c-255.199 0-462.080-206.881-462.080-462.080s206.881-462.080 462.080-462.080 462.080 206.881 462.080 462.080-206.881 462.080-462.080 462.080zM537.6 691.84c-31.85 0-57.76-25.91-57.76-57.76v-231.040c0-95.548-77.732-173.28-173.28-173.28s-173.28 77.733-173.28 173.28v115.52h115.52v-115.52c0-31.849 25.911-57.76 57.76-57.76s57.76 25.911 57.76 57.76v231.040c0 95.548 77.732 173.28 173.28 173.28s173.28-77.732 173.28-160.645v-55.955l-74.005-21.66-41.515 21.66v55.955c0 19.215-25.91 45.125-57.76 45.125zM768.64 229.76c-95.548 0-173.28 77.733-173.28 185.915v111.91l41.515-21.66 74.005 21.66v-111.91c0-44.484 25.911-70.395 57.76-70.395s57.76 25.911 57.76 57.76v115.52h115.52v-115.52c0-95.548-77.732-173.28-173.28-173.28z" />
<glyph unicode="&#xe667;" d="M537.6 922.88c-255.199 0-462.080-206.881-462.080-462.080s206.881-462.080 462.080-462.080 462.080 206.881 462.080 462.080-206.881 462.080-462.080 462.080zM364.32 229.76c-31.9 0-57.76 25.86-57.76 57.76s25.86 57.76 57.76 57.76 57.76-25.86 57.76-57.76-25.86-57.76-57.76-57.76zM523.16 229.76c0 119.433-97.167 216.6-216.6 216.6v86.64c167.208 0 303.24-136.032 303.24-303.24h-86.64zM696.44 229.76c0 104.139-40.555 202.048-114.194 275.687s-171.545 114.193-275.686 114.193v86.64c127.283 0 246.948-49.567 336.952-139.57 90.001-90.003 139.568-209.667 139.568-336.95h-86.64z" />
<glyph unicode="&#xe668;" d="M537.6 922.88c-255.199 0-462.080-206.881-462.080-462.080s206.881-462.080 462.080-462.080 462.080 206.881 462.080 462.080-206.881 462.080-462.080 462.080zM306.56 691.84h462.080c8.247 0 16.249-1.771 23.595-5.11l-254.635-297.074-254.635 297.076c7.346 3.335 15.348 5.108 23.595 5.108zM248.8 287.52v346.56c0 1.209 0.050 2.411 0.126 3.61l169.367-197.595-167.502-167.502c-1.303 4.816-1.991 9.825-1.991 14.927zM768.64 229.76h-462.080c-5.102 0-10.11 0.688-14.927 1.993l164.361 164.361 81.606-95.212 81.608 95.208 164.36-164.363c-4.819-1.3-9.825-1.987-14.927-1.987zM826.4 287.52c0-5.102-0.688-10.108-1.991-14.927l-167.504 167.502 169.369 197.595c0.076-1.199 0.126-2.401 0.126-3.61v-346.56z" />
</font>
</defs>
</svg>
